<svg width="56" height="48" xmlns="http://www.w3.org/2000/svg"><defs><filter id="blur" x="-.207" y="-.198" width="1.403" height="1.477"><feGaussianBlur in="SourceAlpha" stdDeviation="3"/><feOffset dy="4" result="offsetblur"/><feComponentTransfer><feFuncA slope=".05" type="linear"/></feComponentTransfer><feMerge><feMergeNode/><feMergeNode in="SourceGraphic"/></feMerge></filter><style>@keyframes am-weather-stroke{0%,12%,16%,20%,24%,28%,4%,8%{transform:translate(0,30px)}10%,14%,18%,2%{transform:translate(.3px,30px)}6%{transform:translate(.5px,30.4px)}22%{transform:translate(1px,30px)}26%{transform:translate(-1px,30px)}40%{fill:orange;transform:translate(0,30px)}65%{fill:#fff;transform:translate(-1px,35px)}61%{fill:orange}}</style></defs><g id="thunder" transform="translate(16 -2)" filter="url(#blur)"><g><path d="M27.7 24.4c0-4.6-3.7-8.2-8.2-8.2-1 0-1.9.2-2.8.5-.3-3.4-3.1-6.2-6.6-6.2-3.7 0-6.7 3-6.7 6.7 0 .8.2 1.6.4 2.3-.3-.1-.7-.1-1-.1-3.7 0-6.7 3-6.7 6.7 0 3.6 2.9 6.6 6.5 6.7h17.2c4.4-.5 7.9-4 7.9-8.4z" fill="#91c0f8" stroke="#fff" stroke-linejoin="round" stroke-width="1.2"/></g><g class="am-weather-lightning"><path fill="orange" stroke="#fff" style="animation-name:am-weather-stroke;animation-duration:1.11s;animation-timing-function:linear;animation-iteration-count:infinite" d="m11.1 6.9 3.2-9.8h6.2l-4.1 7.2h3.9l-8.8 10.3 3.4-7.7z" transform="matrix(1.2 0 0 1.2 -4 28)"/></g></g></svg>